<svg width="192" height="192" viewBox="0 0 192 192" fill="none" xmlns="http://www.w3.org/2000/svg">
<path d="M121.713 159.083C108.84 156.912 101.822 163.038 99.7221 168.777C99.5371 169.284 98.9341 169.208 98.9341 168.723L98.9281 166.938C98.9281 160.527 104.64 154.666 111.443 147.862L122.683 136.613L152.629 141.764C152.629 141.764 161.183 150.318 168.498 157.639C182.603 140.998 191.114 119.467 191.114 95.944C191.114 43.214 148.368 0.467987 95.6381 0.467987C42.9081 0.467987 0.162109 43.214 0.162109 95.944C0.162109 119.467 8.67411 140.998 22.7781 157.639C30.0931 150.317 38.6471 141.764 38.6471 141.764L72.6381 135.922C88.3801 133.182 92.3091 136.723 92.3351 141.936C92.3351 142.162 92.1521 142.345 91.9261 142.345L82.1111 142.343C81.8851 142.343 81.7021 142.526 81.7021 142.752V148.555C81.7021 148.781 81.8851 148.964 82.1111 148.964H91.9351C92.1611 148.964 92.3441 149.147 92.3441 149.373C92.3441 149.373 92.3431 168.374 92.3431 168.724C92.3431 169.209 91.7401 169.285 91.5541 168.778C89.4541 163.039 82.4361 156.913 69.5631 159.084C69.5631 159.084 47.1781 162.952 30.5751 165.811C47.6261 181.697 70.4951 191.422 95.6381 191.422C120.781 191.422 143.65 181.698 160.701 165.811C144.098 162.951 121.713 159.083 121.713 159.083ZM99.7501 159.36C99.6241 159.97 98.9271 159.968 98.9271 159.36V149.376C98.9271 149.15 99.1101 148.967 99.3361 148.967L104.283 148.964C102.083 151.871 100.676 154.866 99.7501 159.36ZM135.257 96.991C137.649 104.723 136.087 116.576 124.881 127.781L111.426 141.249C111.05 141.626 110.686 141.989 110.331 142.345H101.069C103.337 138.45 107.175 134.552 111.443 130.284L120.821 120.913C132.678 109.056 134.547 103.474 134.491 96.977C134.485 96.29 135.053 96.334 135.257 96.991ZM116.917 89.653C124.581 81.989 126.431 73.109 120.337 67.83C119.827 67.388 120.092 66.847 120.759 67.151C128.359 70.615 134.35 83.198 121.321 96.228L111.423 106.103C104.692 112.834 101.436 116.04 99.7541 124.199C99.6281 124.809 98.9311 124.807 98.9311 124.199V114.2C98.9311 107.789 104.643 101.928 111.446 95.124L116.917 89.653ZM56.0681 98.651C53.6761 90.919 55.2381 79.066 66.4441 67.861L96.0821 38.21C102.813 31.479 106.077 28.26 107.758 20.1C107.884 19.49 108.581 19.492 108.581 20.1V30.099C108.581 36.51 102.869 42.371 96.0661 49.175L70.5051 74.729C58.6481 86.586 56.7791 92.168 56.8361 98.665C56.8401 99.351 56.2711 99.307 56.0681 98.651ZM60.6121 116.315C53.9861 108.213 56.2401 95.604 69.2681 82.576L96.1141 55.752C102.844 49.021 106.1 45.751 107.781 37.591C107.907 36.981 108.604 36.983 108.604 37.591V47.658C108.604 54.069 102.892 59.93 96.0891 66.734L72.3671 90.457C67.3651 95.459 56.8601 105.968 61.2411 115.88C61.5291 116.531 61.0531 116.855 60.6121 116.315ZM74.4081 105.989C66.7441 113.653 64.8941 122.533 70.9881 127.812C71.4981 128.254 71.2331 128.795 70.5661 128.491C62.9661 125.027 56.9751 112.444 70.0041 99.414L96.0851 73.356C102.816 66.625 106.072 63.419 107.754 55.26C107.88 54.65 108.577 54.652 108.577 55.26V65.259C108.577 71.67 102.865 77.531 96.0621 84.335L74.4081 105.989ZM98.9031 131.801C98.9031 125.39 104.615 119.529 111.418 112.725L118.957 105.185C123.959 100.183 134.464 89.673 130.083 79.762C129.795 79.11 130.27 78.787 130.712 79.327C137.338 87.429 135.084 100.038 122.056 113.066L111.393 123.707C104.662 130.438 101.407 133.708 99.7251 141.868C99.5991 142.478 98.9021 142.476 98.9021 141.868V131.801H98.9031ZM160.823 132.158C160.823 129.084 163.046 126.862 166.119 126.862C169.049 126.862 171.415 129.085 171.415 132.158C171.415 135.233 169.192 137.454 166.119 137.454C163.046 137.454 160.823 135.233 160.823 132.158ZM170.593 132.158C170.593 129.662 168.73 127.626 166.119 127.626C163.508 127.626 161.631 129.517 161.631 132.158C161.631 134.655 163.508 136.69 166.119 136.69C168.587 136.689 170.593 134.799 170.593 132.158ZM164.142 129.011H165.989C167.561 129.011 168.269 129.632 168.269 130.874C168.269 131.782 167.721 132.287 167.143 132.519L168.817 135.319H167.577L166.133 132.822H165.239V135.319H164.142V129.011ZM165.96 131.927C166.711 131.927 167.158 131.508 167.158 130.902C167.158 130.224 166.783 129.935 165.946 129.935H165.239V131.927H165.96Z" fill="#40BCC9"/>
</svg>
